<?xml version="1.0" encoding="utf-8"?>
<!-- Generator: Adobe Illustrator 16.0.0, SVG Export Plug-In . SVG Version: 6.00 Build 0)  -->
<!DOCTYPE svg PUBLIC "-//W3C//DTD SVG 1.1//EN" "http://www.w3.org/Graphics/SVG/1.1/DTD/svg11.dtd">
<svg version="1.1" id="Layer_1" xmlns="http://www.w3.org/2000/svg" xmlns:xlink="http://www.w3.org/1999/xlink" x="0px" y="0px"
	 width="695px" height="157px" viewBox="0 0 695 157" enable-background="new 0 0 695 157" xml:space="preserve">
<g>
	<g>
		<path fill="#FFFFFF" d="M47.266,49.26c7.097,0,12.468,1.823,16.115,5.471c3.647,3.646,5.47,8.756,5.47,15.326
			c0,6.571-1.823,11.696-5.47,15.376c-3.647,3.682-9.019,5.486-16.115,5.42H25.779v28.78h-9.363V49.26H47.266z M44.112,82.969
			c5.322,0.065,9.215-1.019,11.68-3.253c2.464-2.233,3.696-5.452,3.696-9.659c0-4.203-1.232-7.408-3.696-9.609
			c-2.464-2.2-6.357-3.303-11.68-3.303H25.779v25.824H44.112z"/>
		<path fill="#FFFFFF" d="M86.494,68.677V79.42h0.197c2.036-4.141,4.534-7.195,7.491-9.166c2.957-1.972,6.702-2.891,11.236-2.76
			v8.87c-3.351,0-6.209,0.461-8.575,1.38c-2.366,0.921-4.272,2.268-5.717,4.041c-1.446,1.773-2.498,3.928-3.154,6.456
			c-0.658,2.53-0.986,5.438-0.986,8.723v22.67h-8.378V68.677H86.494z"/>
		<path fill="#FFFFFF" d="M108.77,83.708c1.05-3.253,2.627-6.077,4.731-8.478c2.102-2.397,4.697-4.287,7.786-5.668
			c3.088-1.379,6.636-2.068,10.645-2.068c4.073,0,7.639,0.689,10.694,2.068c3.055,1.381,5.633,3.271,7.737,5.668
			c2.103,2.399,3.679,5.225,4.731,8.478c1.05,3.252,1.577,6.751,1.577,10.496c0,3.746-0.526,7.229-1.577,10.448
			c-1.052,3.22-2.629,6.029-4.731,8.427c-2.104,2.399-4.682,4.272-7.737,5.618c-3.056,1.346-6.621,2.021-10.694,2.021
			c-4.009,0-7.557-0.675-10.645-2.021c-3.089-1.346-5.684-3.219-7.786-5.618c-2.104-2.397-3.681-5.207-4.731-8.427
			c-1.052-3.219-1.577-6.702-1.577-10.448C107.192,90.459,107.717,86.96,108.77,83.708z M117.295,102.436
			c0.821,2.398,1.955,4.402,3.4,6.014c1.445,1.609,3.137,2.843,5.076,3.693c1.938,0.855,3.992,1.281,6.16,1.281
			s4.221-0.426,6.16-1.281c1.938-0.853,3.63-2.084,5.076-3.693c1.444-1.609,2.578-3.613,3.4-6.014
			c0.821-2.396,1.232-5.142,1.232-8.229s-0.411-5.83-1.232-8.229c-0.822-2.397-1.956-4.42-3.4-6.063
			c-1.446-1.643-3.139-2.891-5.076-3.746c-1.939-0.854-3.992-1.281-6.16-1.281s-4.223,0.43-6.16,1.281
			c-1.939,0.855-3.631,2.104-5.076,3.746c-1.446,1.643-2.58,3.663-3.4,6.063c-0.822,2.398-1.232,5.143-1.232,8.229
			C116.063,97.294,116.473,100.037,117.295,102.436z"/>
		<path fill="#FFFFFF" d="M167.511,49.26h17.347l19.417,55.098h0.195l18.924-55.098h17.15v70.374h-11.729V65.325h-0.197
			l-19.518,54.309h-10.15l-19.516-54.309h-0.197v54.309H167.51L167.511,49.26L167.511,49.26z"/>
		<path fill="#FFFFFF" d="M274.156,49.26h13.107l27.105,70.374H301.16l-6.604-18.629h-28.09l-6.604,18.629H247.15L274.156,49.26z
			 M269.819,91.643h21.485l-10.546-30.26h-0.295L269.819,91.643z"/>
		<path fill="#FFFFFF" d="M320.578,49.26h13.012l32.131,51.844h0.197V49.26h11.729v70.374h-13.012l-32.032-51.745h-0.298v51.745
			h-11.729L320.578,49.26L320.578,49.26z"/>
		<path fill="#FFFFFF" d="M411.059,49.26h13.107l27.105,70.374h-13.207l-6.604-18.629h-28.09l-6.605,18.629H384.05L411.059,49.26z
			 M406.721,91.643h21.488l-10.547-30.26h-0.297L406.721,91.643z"/>
		<path fill="#FFFFFF" d="M519.379,119.634h-7.885l-1.873-8.278c-3.287,3.744-6.572,6.343-9.857,7.785
			c-3.283,1.445-7.063,2.17-11.334,2.17c-5.258,0-9.973-0.972-14.145-2.908c-4.172-1.938-7.705-4.584-10.596-7.935
			c-2.893-3.352-5.109-7.26-6.652-11.729c-1.545-4.468-2.316-9.229-2.316-14.291c0-4.992,0.771-9.725,2.316-14.192
			c1.543-4.468,3.762-8.378,6.652-11.729s6.424-6.012,10.596-7.982c4.172-1.97,8.887-2.957,14.145-2.957
			c3.813,0,7.441,0.51,10.893,1.527c3.451,1.021,6.521,2.531,9.217,4.533c2.693,2.006,4.928,4.52,6.701,7.541
			c1.773,3.022,2.891,6.506,3.352,10.447h-12.023c-0.328-2.3-1.033-4.32-2.119-6.062c-1.084-1.74-2.447-3.204-4.09-4.388
			c-1.645-1.183-3.482-2.068-5.521-2.66c-2.037-0.592-4.174-0.887-6.406-0.887c-3.746,0-6.98,0.756-9.709,2.266
			c-2.727,1.514-4.943,3.533-6.65,6.063c-1.709,2.53-2.977,5.406-3.795,8.625c-0.822,3.221-1.232,6.507-1.232,9.855
			c0,3.352,0.41,6.638,1.232,9.854c0.818,3.221,2.086,6.096,3.795,8.625c1.707,2.53,3.926,4.551,6.65,6.063
			c2.729,1.512,5.963,2.267,9.709,2.267c3.154,0.065,5.945-0.345,8.377-1.23c2.434-0.887,4.486-2.168,6.162-3.844
			c1.674-1.678,2.939-3.729,3.793-6.16c0.854-2.432,1.314-5.125,1.381-8.082h-18.727v-9.363h29.963L519.379,119.634L519.379,119.634
			z"/>
		<path fill="#FFFFFF" d="M532.783,49.26h50.66v10.645h-38.342v18.433h35.482v10.055h-35.482v20.601h39.029v10.646h-51.35
			L532.783,49.26L532.783,49.26z"/>
	</g>
</g>
</svg>
