<?xml version="1.0" encoding="utf-8"?>
<!-- Generator: Adobe Illustrator 16.0.3, SVG Export Plug-In . SVG Version: 6.00 Build 0)  -->
<!DOCTYPE svg PUBLIC "-//W3C//DTD SVG 1.1//EN" "http://www.w3.org/Graphics/SVG/1.1/DTD/svg11.dtd">
<svg version="1.1" id="Layer_1" xmlns="http://www.w3.org/2000/svg" xmlns:xlink="http://www.w3.org/1999/xlink" x="0px" y="0px"
	 width="243.5px" height="46.5px" viewBox="0 0 243.5 46.5" enable-background="new 0 0 243.5 46.5" xml:space="preserve">
<path fill="#80CCAB" d="M19.556,3.876c-1.535-1.31-3.521-2.077-6.592-2.077H1v31.604h4.515V19.407h7.45
	c3.07,0,5.057-0.768,6.592-2.077c1.897-1.625,3.116-4.019,3.116-6.728S21.453,5.501,19.556,3.876 M16.893,13.718
	c-0.813,0.858-1.987,1.4-4.154,1.4H5.515v-9.03h7.224c2.167,0,3.341,0.542,4.154,1.399c0.767,0.813,1.263,1.896,1.263,3.115
	C18.156,11.822,17.66,12.905,16.893,13.718"/>
<path fill="#80CCAB" d="M31.066,14.621v-2.438h-4.153v21.221h4.288V19.362c1.174-2.032,3.522-3.567,5.734-3.567
	c0.678,0,1.174,0.045,1.67,0.18l0.497-4.107c-0.497-0.09-1.219-0.136-1.67-0.136C34.317,11.731,32.105,13.177,31.066,14.621"/>
<path fill="#80CCAB" d="M52.919,11.731c-6.275,0-10.971,4.741-10.971,11.062c0,6.321,4.695,11.062,10.971,11.062
	s10.971-4.74,10.971-11.062C63.89,16.473,59.194,11.731,52.919,11.731 M52.919,29.791c-3.929,0-6.681-3.115-6.681-6.998
	s2.752-6.998,6.681-6.998c3.928,0,6.681,3.115,6.681,6.998S56.847,29.791,52.919,29.791"/>
<path fill="#80CCAB" d="M19.556,3.876c-1.535-1.31-3.521-2.077-6.592-2.077H1v31.604h4.515V19.407h7.45
	c3.07,0,5.057-0.768,6.592-2.077c1.897-1.625,3.116-4.019,3.116-6.728S21.453,5.501,19.556,3.876 M16.893,13.718
	c-0.813,0.858-1.987,1.4-4.154,1.4H5.515v-9.03h7.224c2.167,0,3.341,0.542,4.154,1.399c0.767,0.813,1.263,1.896,1.263,3.115
	C18.156,11.822,17.66,12.905,16.893,13.718"/>
<path fill="#80CCAB" d="M31.066,14.621v-2.438h-4.153v21.221h4.288V19.362c1.175-2.032,3.523-3.567,5.734-3.567
	c0.678,0,1.174,0.045,1.671,0.18l0.496-4.107c-0.496-0.09-1.218-0.136-1.67-0.136C34.317,11.731,32.105,13.177,31.066,14.621"/>
<path fill="#80CCAB" d="M52.919,11.731c-6.276,0-10.971,4.741-10.971,11.062c0,6.321,4.695,11.062,10.971,11.062
	c6.275,0,10.971-4.74,10.971-11.062C63.89,16.473,59.194,11.731,52.919,11.731 M52.919,29.791c-3.929,0-6.681-3.115-6.681-6.998
	s2.752-6.998,6.681-6.998c3.928,0,6.681,3.115,6.681,6.998S56.847,29.791,52.919,29.791"/>
<path fill="#0A0A47" d="M130.254,14.124c-1.941-1.67-4.244-2.393-6.636-2.393c-1.986,0-3.748,0.497-5.192,1.354
	c-3.205,1.896-5.462,5.463-5.462,9.707s2.211,7.766,5.418,9.661c1.445,0.858,3.431,1.4,5.327,1.4c2.528,0,4.831-0.858,6.546-2.393
	v1.94h4.155V12.184h-4.155V14.124z M130.12,26.767c-1.445,1.94-3.657,3.024-5.824,3.024c-4.108,0-7.043-3.205-7.043-6.998
	c0-3.702,2.709-6.998,6.817-6.998c2.573,0,4.741,1.309,6.05,3.025V26.767z"/>
<path fill="#0A0A47" d="M151.671,11.731c-3.07,0-5.237,1.399-6.366,2.483v-2.031h-4.153v21.22h4.29V18.82
	c1.263-1.535,3.295-3.024,6.094-3.024c1.761,0,3.386,0.812,4.379,2.076c0.768,0.948,1.265,2.212,1.265,4.921v10.61h4.29V23.019
	c0-3.657-0.722-5.824-2.078-7.54C157.585,13.176,154.786,11.731,151.671,11.731"/>
<path fill="#0A0A47" d="M183.979,14.124c-1.941-1.67-4.244-2.393-6.637-2.393c-1.986,0-3.747,0.497-5.192,1.354
	c-3.205,1.896-5.462,5.463-5.462,9.707s2.212,7.766,5.417,9.661c1.445,0.858,3.431,1.4,5.327,1.4c2.529,0,4.831-0.858,6.546-2.393
	v1.94h4.154V12.184h-4.154V14.124z M183.843,26.767c-1.445,1.94-3.657,3.024-5.824,3.024c-4.108,0-7.044-3.205-7.044-6.998
	c0-3.702,2.709-6.998,6.818-6.998c2.573,0,4.74,1.309,6.05,3.025V26.767z"/>
<path fill="#0A0A47" d="M211.047,14.124c-1.942-1.67-4.245-2.393-6.638-2.393c-1.986,0-3.747,0.497-5.192,1.354
	c-3.205,1.896-5.463,5.463-5.463,9.707s2.212,7.766,5.418,9.661c1.445,0.858,3.431,1.4,5.327,1.4c2.529,0,4.696-0.813,6.411-2.303
	v1.174c0,2.664-0.406,4.29-1.173,5.463c-1.039,1.58-2.845,2.438-5.147,2.438c-3.477,0-5.463-1.761-6.998-3.792l-3.161,2.934
	c1.354,2.122,4.831,4.922,10.338,4.922c4.199,0,7.45-1.94,9.167-5.238c0.858-1.67,1.264-3.792,1.264-6.952V12.184h-4.153V14.124z
	 M210.911,26.767c-1.445,1.94-3.657,3.024-5.824,3.024c-4.109,0-7.042-3.205-7.042-6.998c0-3.702,2.708-6.998,6.817-6.998
	c2.574,0,4.741,1.309,6.049,3.025V26.767z"/>
<path fill="#0A0A47" d="M241.31,22.793c0-6.275-4.288-11.062-10.202-11.062c-6.005,0-10.339,4.695-10.339,11.062
	s4.786,11.062,10.971,11.062c4.334,0,7.358-1.941,8.939-3.973l-2.799-2.664c-1.219,1.354-2.935,2.89-6.095,2.89
	c-3.702,0-6.637-2.845-6.863-6.411h16.345C241.31,23.29,241.31,22.974,241.31,22.793 M225.282,20.084
	c0.723-2.754,3.206-4.605,5.96-4.605c2.528,0,4.966,1.896,5.598,4.605H225.282z"/>
<polygon fill="#0A0A47" points="90.402,14.866 90.402,1 85.806,1 65.164,33.401 70.151,33.401 86.196,8.214 86.196,14.866 "/>
<polygon fill="#0A0A47" points="106.503,1 90.409,26.263 90.405,26.187 90.405,19.535 86.199,19.535 86.199,33.401 86.98,33.401 
	90.796,33.401 90.848,33.401 106.894,8.215 106.894,14.866 111.1,14.866 111.099,1 "/>
</svg>
